<svg xmlns="http://www.w3.org/2000/svg" width="130.338" height="114.769" viewBox="0 0 130.338 114.769"><defs><style>.a{fill:#231f20;}.b{fill:#97c23d;}.c{fill:#fff;}</style></defs><title>brandefined_logo</title><polygon class="a" points="66.057 105.969 75.687 105.969 75.687 108.011 68.756 108.011 68.756 109.421 75.323 109.421 75.323 111.245 68.756 111.245 68.756 112.655 75.845 112.655 75.845 114.769 66.057 114.769 66.057 105.969"/><polygon class="a" points="77.474 105.969 86.667 105.969 86.667 108.085 80.174 108.085 80.174 109.725 86.361 109.725 86.361 111.769 80.174 111.769 80.174 114.769 77.474 114.769 77.474 105.969"/><rect class="a" x="88.441" y="105.969" width="2.698" height="8.8"/><polygon class="a" points="93.109 105.969 97.29 105.969 102.362 112.364 102.388 112.364 102.388 105.969 105.086 105.969 105.086 114.769 100.904 114.769 95.834 108.376 95.808 108.376 95.808 114.769 93.109 114.769 93.109 105.969"/><polygon class="a" points="106.91 105.969 116.539 105.969 116.539 108.011 109.609 108.011 109.609 109.421 116.174 109.421 116.174 111.245 109.609 111.245 109.609 112.655 116.697 112.655 116.697 114.769 106.91 114.769 106.91 105.969"/><path class="a" d="M190.548,256.106h8.147a7.356,7.356,0,0,1,1.708.171,2.652,2.652,0,0,1,1.13.541,2.069,2.069,0,0,1,.621.955,4.549,4.549,0,0,1,.188,1.4v2.676a4.57,4.57,0,0,1-.188,1.4,2.089,2.089,0,0,1-.621.955,2.71,2.71,0,0,1-1.13.541,7.426,7.426,0,0,1-1.708.167h-8.147v-8.8Zm2.7,6.54h4.789a3.166,3.166,0,0,0,.742-0.072,0.971,0.971,0,0,0,.772-0.728,2.776,2.776,0,0,0,.093-0.778v-1.192a2.785,2.785,0,0,0-.093-0.778,1.055,1.055,0,0,0-.278-0.478,1.069,1.069,0,0,0-.494-0.251,3.33,3.33,0,0,0-.742-0.072h-4.789v4.352Z" transform="translate(-72.125 -150.138)"/><path class="a" d="M72.125,256.106h7.769a7.594,7.594,0,0,1,1.4.114,2.668,2.668,0,0,1,1,.391,1.657,1.657,0,0,1,.595.719,2.691,2.691,0,0,1,.2,1.086,3.55,3.55,0,0,1-.1.924,1.577,1.577,0,0,1-.273.572,1.16,1.16,0,0,1-.414.329,4.019,4.019,0,0,1-.517.194v0.035a1.721,1.721,0,0,1,1.253.609,2.522,2.522,0,0,1,.365,1.5,2.965,2.965,0,0,1-.2,1.185,1.654,1.654,0,0,1-.559.711,2.11,2.11,0,0,1-.85.348,5.95,5.95,0,0,1-1.076.089h-8.6v-8.8Zm2.7,3.489H79.6a0.968,0.968,0,0,0,.584-0.153,0.612,0.612,0,0,0,.207-0.528,0.631,0.631,0,0,0-.207-0.54,0.975,0.975,0,0,0-.584-0.151H74.824V259.6Zm0,3.2h4.84a1.626,1.626,0,0,0,.705-0.128,0.511,0.511,0,0,0,.267-0.517,0.6,0.6,0,0,0-.267-0.588,1.509,1.509,0,0,0-.705-0.142h-4.84v1.374Z" transform="translate(-72.125 -150.138)"/><path class="a" d="M85.037,256.106h8.147a3.744,3.744,0,0,1,1.287.188,1.926,1.926,0,0,1,.81.529,1.954,1.954,0,0,1,.419.822,4.348,4.348,0,0,1,.121,1.074v0.559a4.619,4.619,0,0,1-.061.791,1.7,1.7,0,0,1-.225.619,1.388,1.388,0,0,1-.461.456,2.5,2.5,0,0,1-.761.3v0.023a3.618,3.618,0,0,1,.572.164,1.228,1.228,0,0,1,.468.322,1.541,1.541,0,0,1,.316.565,2.87,2.87,0,0,1,.116.895v1.493h-2.7v-1.056a1.472,1.472,0,0,0-.236-0.96,1.131,1.131,0,0,0-.87-0.268H87.736v2.283h-2.7v-8.8Zm2.7,4.329H92.2a1.07,1.07,0,0,0,.772-0.226,0.944,0.944,0,0,0,.225-0.7v-0.293a0.8,0.8,0,0,0-.3-0.754,1.984,1.984,0,0,0-.943-0.17H87.736v2.141Z" transform="translate(-72.125 -150.138)"/><path class="a" d="M101.548,256.106h3.514l4.838,8.8h-3l-0.838-1.556h-5.472L99.8,264.907H96.784Zm0.049,5.351h3.453l-1.751-3.309Z" transform="translate(-72.125 -150.138)"/><polygon class="a" points="38.736 105.969 42.92 105.969 47.989 112.364 48.014 112.364 48.014 105.969 50.713 105.969 50.713 114.769 46.53 114.769 41.459 108.376 41.436 108.376 41.436 114.769 38.736 114.769 38.736 105.969"/><path class="a" d="M124.759,256.106h8.147a7.338,7.338,0,0,1,1.707.171,2.656,2.656,0,0,1,1.131.541,2.06,2.06,0,0,1,.621.955,4.623,4.623,0,0,1,.189,1.4v2.676a4.645,4.645,0,0,1-.189,1.4,2.08,2.08,0,0,1-.621.955,2.714,2.714,0,0,1-1.131.541,7.408,7.408,0,0,1-1.707.167h-8.147v-8.8Zm2.7,6.54h4.79a3.166,3.166,0,0,0,.742-0.072,0.977,0.977,0,0,0,.772-0.728,2.811,2.811,0,0,0,.093-0.778v-1.192a2.821,2.821,0,0,0-.093-0.778,0.984,0.984,0,0,0-.772-0.729,3.329,3.329,0,0,0-.742-0.072h-4.79v4.352Z" transform="translate(-72.125 -150.138)"/><path class="b" d="M200.391,168.544A22.842,22.842,0,0,0,193.524,158a29.388,29.388,0,0,0-12.5-5.982,80.774,80.774,0,0,0-18.867-1.883H72.141v97.256h90.017a80.672,80.672,0,0,0,18.867-1.863,29.407,29.407,0,0,0,12.5-5.979,22.843,22.843,0,0,0,6.867-10.545,51.192,51.192,0,0,0,2.072-15.45V184A51.2,51.2,0,0,0,200.391,168.544Z" transform="translate(-72.125 -150.138)"/><path class="c" d="M175.838,202.8q-2.577-3.52-8.855-4.3v-0.254a29.675,29.675,0,0,0,3.653-1.368,8.186,8.186,0,0,0,2.921-2.328,11.207,11.207,0,0,0,1.937-4.041,25.465,25.465,0,0,0,.689-6.536A18.986,18.986,0,0,0,174.8,176.3a11.722,11.722,0,0,0-4.2-5.073,18.7,18.7,0,0,0-7.1-2.759,53.414,53.414,0,0,0-9.925-.812H103.9v0H87.037v14.965H98.654v47.252h60.773a41.574,41.574,0,0,0,7.6-.632,14.987,14.987,0,0,0,6.016-2.452A11.764,11.764,0,0,0,177,221.749a21.023,21.023,0,0,0,1.419-8.37Q178.417,206.333,175.838,202.8Zm-58.1-20.193h33.779a6.863,6.863,0,0,1,4.127,1.075c0.971,0.716,1.465,1.99,1.465,3.821,0,1.785-.494,3.022-1.465,3.732a6.856,6.856,0,0,1-4.127,1.083H117.736v-9.712Zm39.193,31.413a11.61,11.61,0,0,1-4.982.9H117.736v-9.716h34.211a10.767,10.767,0,0,1,4.982,1c1.267,0.657,1.889,2.046,1.889,4.168C158.818,212.2,158.2,213.417,156.929,214.02Z" transform="translate(-72.125 -150.138)"/><path class="a" d="M202.194,244.072a3.213,3.213,0,1,1-3.183-3.125A3.149,3.149,0,0,1,202.194,244.072Zm-5.622,0a2.433,2.433,0,0,0,2.44,2.5,2.394,2.394,0,0,0,2.382-2.477A2.413,2.413,0,1,0,196.572,244.072Zm1.925,1.62h-0.725v-3.125a8.458,8.458,0,0,1,1.2-.1,1.663,1.663,0,0,1,1.067.248,0.785,0.785,0,0,1,.324.666,0.807,0.807,0,0,1-.648.744v0.038a0.881,0.881,0,0,1,.553.763,2.776,2.776,0,0,0,.229.762h-0.762a2.454,2.454,0,0,1-.248-0.762,0.55,0.55,0,0,0-.648-0.477H198.5v1.238Zm0.019-1.753h0.343c0.4,0,.724-0.134.724-0.458,0-.285-0.21-0.476-0.667-0.476a1.653,1.653,0,0,0-.4.038v0.9Z" transform="translate(-72.125 -150.138)"/></svg>