<svg xmlns="http://www.w3.org/2000/svg" width="20" height="25" viewBox="0 0 20 25"><defs><style>.a{fill:#522e91;}</style></defs><title>icon-phone</title><path class="a" d="M195.669,5.96a30.167,30.167,0,0,1-1.505-4.3c-0.442-1.643-1.491-2.172-2.53-1.093L189.289,3a5.9,5.9,0,0,0-1.223,4.994c1.976,7.387,6.536,13.449,12.53,16.659a3.959,3.959,0,0,0,4.365-.815l2.345-2.438c1.038-1.079.72-2.368-.613-3.085a22.555,22.555,0,0,1-3.449-2.283l-2.323,2.415a1.819,1.819,0,0,1-2.469-.237,26.468,26.468,0,0,1-5.209-6.925,2.759,2.759,0,0,1,.1-2.91Z" transform="translate(-187.923 0)"/></svg>