<svg xmlns="http://www.w3.org/2000/svg" width="204.011" height="31.756" viewBox="0 0 204.011 31.756"><defs><style>.a{fill:#97c23d;}.b{fill:#fff;}.c{fill:#231f20;}</style></defs><title>brandefined_logo_fulltext</title><path class="a" d="M73.676,553.131a7.448,7.448,0,0,0-2.242-3.441,9.578,9.578,0,0,0-4.081-1.954,26.365,26.365,0,0,0-6.16-.615H31.8v31.756H61.192a26.4,26.4,0,0,0,6.16-.607,9.622,9.622,0,0,0,4.081-1.953,7.459,7.459,0,0,0,2.242-3.442,16.711,16.711,0,0,0,.677-5.045v-9.651A16.711,16.711,0,0,0,73.676,553.131Z" transform="translate(-31.8 -547.121)"/><path class="b" d="M65.659,564.316a4,4,0,0,0-2.892-1.4V562.83a9.579,9.579,0,0,0,1.193-.447,2.681,2.681,0,0,0,.954-0.76,3.658,3.658,0,0,0,.632-1.319,8.319,8.319,0,0,0,.225-2.135,6.2,6.2,0,0,0-.451-2.507,3.825,3.825,0,0,0-1.373-1.656,6.106,6.106,0,0,0-2.318-.9,17.454,17.454,0,0,0-3.24-.264H42.169v0H36.664v4.887h3.793v15.429H60.3a13.714,13.714,0,0,0,2.481-.206,4.9,4.9,0,0,0,1.964-.8,3.828,3.828,0,0,0,1.291-1.643,6.871,6.871,0,0,0,.463-2.733A5.852,5.852,0,0,0,65.659,564.316Zm-18.971-6.594H57.717a2.25,2.25,0,0,1,1.348.351,1.457,1.457,0,0,1,.479,1.247,1.41,1.41,0,0,1-.479,1.219,2.243,2.243,0,0,1-1.348.354H46.687v-3.171Zm12.8,10.257a3.8,3.8,0,0,1-1.627.295H46.687V565.1h11.17a3.521,3.521,0,0,1,1.627.327,1.383,1.383,0,0,1,.616,1.359A1.185,1.185,0,0,1,59.485,567.98Z" transform="translate(-31.8 -547.121)"/><polygon class="c" points="125.613 5.547 136.728 5.547 136.728 7.902 128.727 7.902 128.727 9.532 136.308 9.532 136.308 11.637 128.727 11.637 128.727 13.263 136.91 13.263 136.91 15.705 125.613 15.705 125.613 5.547"/><polygon class="c" points="138.789 5.547 149.4 5.547 149.4 7.988 141.906 7.988 141.906 9.882 149.046 9.882 149.046 12.239 141.906 12.239 141.906 15.705 138.789 15.705 138.789 5.547"/><rect class="c" x="151.448" y="5.546" width="3.115" height="10.158"/><polygon class="c" points="156.834 5.547 161.661 5.547 167.514 12.927 167.544 12.927 167.544 5.547 170.659 5.547 170.659 15.705 165.832 15.705 159.98 8.326 159.952 8.326 159.952 15.705 156.834 15.705 156.834 5.547"/><polygon class="c" points="172.763 5.547 183.876 5.547 183.876 7.902 175.877 7.902 175.877 9.532 183.456 9.532 183.456 11.637 175.877 11.637 175.877 13.263 184.06 13.263 184.06 15.705 172.763 15.705 172.763 5.547"/><path class="c" d="M217.851,552.667h9.4a8.436,8.436,0,0,1,1.974.2,3.061,3.061,0,0,1,1.3.625,2.385,2.385,0,0,1,.717,1.1,5.257,5.257,0,0,1,.217,1.613v3.087a5.261,5.261,0,0,1-.217,1.613,2.391,2.391,0,0,1-.717,1.1,3.085,3.085,0,0,1-1.3.624,8.446,8.446,0,0,1-1.974.2h-9.4V552.667Zm3.116,7.55h5.528a3.77,3.77,0,0,0,.858-0.083,1.271,1.271,0,0,0,.57-0.288,1.249,1.249,0,0,0,.32-0.555,3.237,3.237,0,0,0,.107-0.9v-1.374a3.262,3.262,0,0,0-.107-0.9,1.223,1.223,0,0,0-.32-0.552,1.253,1.253,0,0,0-.57-0.289,3.771,3.771,0,0,0-.858-0.084h-5.528v5.023Z" transform="translate(-31.8 -547.121)"/><path class="c" d="M81.173,552.668H90.14a8.866,8.866,0,0,1,1.621.132,3.056,3.056,0,0,1,1.159.451,1.908,1.908,0,0,1,.686.828,3.1,3.1,0,0,1,.227,1.255,4.163,4.163,0,0,1-.113,1.065,1.826,1.826,0,0,1-.317.66,1.306,1.306,0,0,1-.476.38,4.522,4.522,0,0,1-.6.223V557.7a2,2,0,0,1,1.446.7,2.925,2.925,0,0,1,.421,1.727,3.421,3.421,0,0,1-.232,1.366,1.917,1.917,0,0,1-.645.821,2.421,2.421,0,0,1-.982.4,6.8,6.8,0,0,1-1.241.1H81.173V552.668Zm3.115,4.026H89.8a1.121,1.121,0,0,0,.675-0.176,0.71,0.71,0,0,0,.239-0.609,0.732,0.732,0,0,0-.239-0.625,1.135,1.135,0,0,0-.675-0.175H84.288v1.585Zm0,3.689h5.586a1.9,1.9,0,0,0,.812-0.145,0.593,0.593,0,0,0,.31-0.6,0.692,0.692,0,0,0-.31-0.681,1.759,1.759,0,0,0-.812-0.163H84.288v1.586Z" transform="translate(-31.8 -547.121)"/><path class="c" d="M96.074,552.668h9.4a4.3,4.3,0,0,1,1.486.219,2.117,2.117,0,0,1,1.418,1.557,5.043,5.043,0,0,1,.139,1.24v0.646a5.439,5.439,0,0,1-.069.913,2,2,0,0,1-.259.715,1.625,1.625,0,0,1-.533.527,2.967,2.967,0,0,1-.878.345v0.025a4.3,4.3,0,0,1,.661.19,1.407,1.407,0,0,1,.54.371,1.816,1.816,0,0,1,.365.654,3.349,3.349,0,0,1,.133,1.031v1.725h-3.114v-1.221a1.689,1.689,0,0,0-.274-1.106,1.3,1.3,0,0,0-1-.31h-4.9v2.637H96.074V552.668Zm3.117,4.994h5.15a1.227,1.227,0,0,0,.891-0.259,1.094,1.094,0,0,0,.26-0.806V556.26a0.922,0.922,0,0,0-.344-0.869,2.262,2.262,0,0,0-1.088-.2H99.191v2.469Z" transform="translate(-31.8 -547.121)"/><path class="c" d="M115.132,552.667h4.056l5.583,10.159h-3.465l-0.967-1.8h-6.316l-0.912,1.8h-3.477Zm0.056,6.175h3.986l-2.021-3.818Z" transform="translate(-31.8 -547.121)"/><polygon class="c" points="94.081 5.547 98.908 5.547 104.76 12.927 104.79 12.927 104.79 5.547 107.903 5.547 107.903 15.705 103.075 15.705 97.223 8.326 97.197 8.326 97.197 15.705 94.081 15.705 94.081 5.547"/><path class="c" d="M141.921,552.667h9.4a8.4,8.4,0,0,1,1.971.2,3.042,3.042,0,0,1,1.3.625,2.372,2.372,0,0,1,.717,1.1,5.348,5.348,0,0,1,.216,1.613v3.087a5.353,5.353,0,0,1-.216,1.613,2.378,2.378,0,0,1-.717,1.1,3.066,3.066,0,0,1-1.3.624,8.416,8.416,0,0,1-1.971.2h-9.4V552.667Zm3.116,7.55h5.528a3.768,3.768,0,0,0,.857-0.083,1.127,1.127,0,0,0,.89-0.843,3.272,3.272,0,0,0,.107-0.9v-1.374a3.3,3.3,0,0,0-.107-0.9,1.213,1.213,0,0,0-.322-0.552,1.234,1.234,0,0,0-.567-0.289,3.768,3.768,0,0,0-.857-0.084h-5.528v5.023Z" transform="translate(-31.8 -547.121)"/><path class="c" d="M81.173,573.315v-6.379H82.64a1.469,1.469,0,0,1,1.576,1.576,1.221,1.221,0,0,1-.574,1.076,1.893,1.893,0,0,1,1.266,1.794c0,1.066-.746,1.933-2.4,1.933H81.173Zm1.467-3.874a0.871,0.871,0,0,0,.938-0.929,0.9,0.9,0,0,0-.938-0.992H81.81v1.921H82.64Zm-0.829.548v2.742h1.02a1.341,1.341,0,0,0,1.44-1.349,1.368,1.368,0,0,0-1.431-1.394H81.81Z" transform="translate(-31.8 -547.121)"/><path class="c" d="M86.41,567.574a0.519,0.519,0,1,1-.52.52A0.526,0.526,0,0,1,86.41,567.574Zm-0.32,5.74v-4.155h0.639v4.155H86.09Z" transform="translate(-31.8 -547.121)"/><path class="c" d="M89.825,569.068a1.86,1.86,0,0,1,1.067.337l0.646-.682,0.447,0.445-0.673.638a1.818,1.818,0,0,1,.373,1.11,1.874,1.874,0,0,1-2.905,1.54c-0.42.4-.42,1.211,0.191,1.211,0.418,0,1.038-.236,1.648-0.236a1.221,1.221,0,0,1,1.339,1.194c0,0.8-.719,1.494-2.077,1.494-1.849,0-2.587-1.257-1.767-2.241a1.235,1.235,0,0,1,.337-1.687A1.856,1.856,0,0,1,89.825,569.068Zm-1.356,5.057c-0.429.537,0.045,1.4,1.411,1.4,1.039,0,1.458-.457,1.458-0.9a0.649,0.649,0,0,0-.72-0.656c-0.492,0-1,.245-1.648.245A1.347,1.347,0,0,1,88.468,574.125Zm1.356-1.858a1.352,1.352,0,1,0-1.257-1.35A1.288,1.288,0,0,0,89.825,572.267Z" transform="translate(-31.8 -547.121)"/><path class="c" d="M95.053,573.315v-6.379H96.52a1.469,1.469,0,0,1,1.576,1.576,1.222,1.222,0,0,1-.574,1.076,1.894,1.894,0,0,1,1.267,1.794c0,1.066-.749,1.933-2.4,1.933h-1.34Zm1.467-3.874a0.871,0.871,0,0,0,.938-0.929,0.9,0.9,0,0,0-.938-0.992H95.691v1.921H96.52Zm-0.829.548v2.742h1.019a1.341,1.341,0,0,0,1.44-1.349,1.368,1.368,0,0,0-1.43-1.394h-1.03Z" transform="translate(-31.8 -547.121)"/><path class="c" d="M100.573,573.315h-0.6v-4.155h0.6v0.274a1.218,1.218,0,0,1-.01.191,1.321,1.321,0,0,1,1.13-.565v0.565a1.233,1.233,0,0,0-1.12,1.313v2.377Z" transform="translate(-31.8 -547.121)"/><path class="c" d="M106.139,573.315a0.792,0.792,0,0,1-.838-0.72,1.958,1.958,0,0,1-1.685.809c-1.933,0-1.96-2.4.018-2.6a4.721,4.721,0,0,1,1.667.146v-0.283a1.047,1.047,0,0,0-1.157-1.074,1.415,1.415,0,0,0-1.14.574l-0.481-.374a1.954,1.954,0,0,1,1.621-.782,1.582,1.582,0,0,1,1.741,1.656v1.8a0.239,0.239,0,0,0,.254.256h0.082v0.593h-0.082Zm-0.838-1.887a5.467,5.467,0,0,0-1.6-.109c-1.129.127-1.292,1.53,0,1.53A1.525,1.525,0,0,0,105.3,571.428Z" transform="translate(-31.8 -547.121)"/><path class="c" d="M110.866,573.315h-0.611v-2.333a1.169,1.169,0,0,0-1.166-1.376,1.338,1.338,0,0,0-1.357,1.332v2.377h-0.6v-4.155h0.6v0.274c0,0.136-.01.265-0.02,0.391a1.742,1.742,0,0,1,1.431-.756,1.655,1.655,0,0,1,1.723,1.913v2.333Z" transform="translate(-31.8 -547.121)"/><path class="c" d="M115.692,573.315h-0.6a6.542,6.542,0,0,1,.018-0.657,1.514,1.514,0,0,1-1.358.746,1.953,1.953,0,0,1-1.887-2.184,1.922,1.922,0,0,1,1.887-2.15,1.5,1.5,0,0,1,1.358.747c-0.01-.128-0.018-0.255-0.018-0.382v-2.953h0.6v6.834Zm-0.6-2.077a1.371,1.371,0,0,0-1.285-1.632,1.461,1.461,0,0,0-1.33,1.613,1.5,1.5,0,0,0,1.33,1.648A1.37,1.37,0,0,0,115.092,571.237Z" transform="translate(-31.8 -547.121)"/><path class="c" d="M118.58,572.038l0.61-.2a1.224,1.224,0,0,0,1.147,1.01,1.119,1.119,0,0,0,1.148-1.267c0-1.329-2.469-1.968-2.469-3.425a1.3,1.3,0,0,1,1.329-1.312,1.332,1.332,0,0,1,1.148.6l-0.529.375a0.752,0.752,0,0,0-.62-0.41,0.7,0.7,0,0,0-.7.747c0,1.012,2.478,1.75,2.478,3.425A1.8,1.8,0,0,1,118.58,572.038Z" transform="translate(-31.8 -547.121)"/><path class="c" d="M123.434,573.315v-3.607h-0.729v-0.548h0.729v-1.768h0.637v1.768H124.8v0.548h-0.729v3.607h-0.637Z" transform="translate(-31.8 -547.121)"/><path class="c" d="M126.312,573.315h-0.6v-4.155h0.6v0.274a1.333,1.333,0,0,1-.009.191,1.32,1.32,0,0,1,1.13-.565v0.565a1.232,1.232,0,0,0-1.121,1.313v2.377Z" transform="translate(-31.8 -547.121)"/><path class="c" d="M131.877,573.315a0.792,0.792,0,0,1-.837-0.72,1.96,1.96,0,0,1-1.685.809c-1.932,0-1.959-2.4.018-2.6a4.723,4.723,0,0,1,1.667.146v-0.283a1.047,1.047,0,0,0-1.157-1.074,1.411,1.411,0,0,0-1.138.574l-0.483-.374a1.954,1.954,0,0,1,1.621-.782,1.582,1.582,0,0,1,1.741,1.656v1.8a0.239,0.239,0,0,0,.254.256h0.083v0.593h-0.083Zm-0.837-1.887a5.469,5.469,0,0,0-1.6-.109c-1.129.127-1.293,1.53,0,1.53A1.525,1.525,0,0,0,131.04,571.428Z" transform="translate(-31.8 -547.121)"/><path class="c" d="M133.233,573.315v-3.607H132.5v-0.548h0.729v-1.768h0.637v1.768h0.73v0.548h-0.73v3.607h-0.637Z" transform="translate(-31.8 -547.121)"/><path class="c" d="M139.2,571.41H135.82a1.467,1.467,0,0,0,1.513,1.43,1.626,1.626,0,0,0,1.394-.71l0.446,0.372a2.2,2.2,0,0,1-3.973-1.274,2.057,2.057,0,0,1,2.06-2.177,1.893,1.893,0,0,1,1.939,2.04v0.319Zm-3.37-.484h2.733a1.3,1.3,0,0,0-1.3-1.329A1.4,1.4,0,0,0,135.83,570.926Z" transform="translate(-31.8 -547.121)"/><path class="c" d="M141.987,569.068a1.855,1.855,0,0,1,1.065.337l0.647-.682,0.447,0.445-0.673.638a1.822,1.822,0,0,1,.373,1.11,1.874,1.874,0,0,1-2.905,1.54c-0.42.4-.42,1.211,0.19,1.211,0.419,0,1.039-.236,1.649-0.236a1.222,1.222,0,0,1,1.339,1.194c0,0.8-.719,1.494-2.078,1.494-1.849,0-2.588-1.257-1.767-2.241a1.234,1.234,0,0,1,.336-1.687A1.857,1.857,0,0,1,141.987,569.068Zm-1.357,5.057c-0.429.537,0.045,1.4,1.412,1.4,1.039,0,1.458-.457,1.458-0.9a0.649,0.649,0,0,0-.719-0.656c-0.492,0-1,.245-1.649.245A1.346,1.346,0,0,1,140.629,574.125Zm1.357-1.858a1.352,1.352,0,1,0-1.257-1.35A1.288,1.288,0,0,0,141.987,572.267Z" transform="translate(-31.8 -547.121)"/><path class="c" d="M145.374,567.574a0.519,0.519,0,1,1-.519.52A0.525,0.525,0,0,1,145.374,567.574Zm-0.319,5.74v-4.155h0.638v4.155h-0.638Z" transform="translate(-31.8 -547.121)"/><path class="c" d="M150.658,571.41h-3.38a1.468,1.468,0,0,0,1.512,1.43,1.625,1.625,0,0,0,1.394-.71l0.447,0.372a2.2,2.2,0,0,1-3.973-1.274,2.056,2.056,0,0,1,2.059-2.177,1.893,1.893,0,0,1,1.94,2.04v0.319Zm-3.371-.484h2.734a1.3,1.3,0,0,0-1.3-1.329A1.406,1.406,0,0,0,147.287,570.926Z" transform="translate(-31.8 -547.121)"/><path class="c" d="M153.326,569.923a0.636,0.636,0,0,0-.6-0.326,0.515,0.515,0,0,0-.537.538,1.14,1.14,0,0,0,.848.754,1.612,1.612,0,0,1,1.184,1.3,1.232,1.232,0,0,1-1.394,1.211,1.747,1.747,0,0,1-1.566-.919l0.546-.255a1.177,1.177,0,0,0,1.02.646,0.663,0.663,0,0,0,.766-0.637,0.986,0.986,0,0,0-.73-0.766,1.632,1.632,0,0,1-1.295-1.312,1.094,1.094,0,0,1,1.168-1.094,1.19,1.19,0,0,1,1.1.6Z" transform="translate(-31.8 -547.121)"/><path class="c" d="M159.556,567.265a0.768,0.768,0,0,0-.646-0.356,0.781,0.781,0,0,0-.757.929v1.322h1.039v0.548h-1.039v3.607h-0.628v-3.607h-0.7v-0.548h0.7v-1.3a1.357,1.357,0,0,1,1.34-1.512,1.278,1.278,0,0,1,1.138.563Z" transform="translate(-31.8 -547.121)"/><path class="c" d="M159.775,571.228a2.1,2.1,0,1,1,2.1,2.176A2.138,2.138,0,0,1,159.775,571.228Zm3.589,0a1.492,1.492,0,1,0-1.485,1.63A1.492,1.492,0,0,0,163.364,571.228Z" transform="translate(-31.8 -547.121)"/><path class="c" d="M165.584,573.315h-0.6v-4.155h0.6v0.274a1.408,1.408,0,0,1-.009.191,1.32,1.32,0,0,1,1.13-.565v0.565a1.234,1.234,0,0,0-1.122,1.313v2.377Z" transform="translate(-31.8 -547.121)"/><path class="c" d="M169.238,572.038l0.61-.2a1.224,1.224,0,0,0,1.149,1.01,1.119,1.119,0,0,0,1.147-1.267c0-1.329-2.469-1.968-2.469-3.425a1.3,1.3,0,0,1,1.33-1.312,1.334,1.334,0,0,1,1.149.6l-0.528.375a0.755,0.755,0,0,0-.621-0.41,0.7,0.7,0,0,0-.7.747c0,1.012,2.478,1.75,2.478,3.425A1.8,1.8,0,0,1,169.238,572.038Z" transform="translate(-31.8 -547.121)"/><path class="c" d="M179.6,573.315h-0.612V570.6a0.854,0.854,0,0,0-.883-0.993,1.169,1.169,0,0,0-1.093,1.3v2.406H176.4V570.6a0.854,0.854,0,0,0-.884-0.993,1.17,1.17,0,0,0-1.093,1.3v2.406h-0.6v-4.155h0.6v0.274c0,0.107-.009.2-0.018,0.3a1.47,1.47,0,0,1,1.239-.664,1.226,1.226,0,0,1,1.23.782,1.413,1.413,0,0,1,1.321-.782,1.356,1.356,0,0,1,1.4,1.54v2.706Z" transform="translate(-31.8 -547.121)"/><path class="c" d="M184.576,573.315a0.793,0.793,0,0,1-.838-0.72,1.957,1.957,0,0,1-1.686.809c-1.932,0-1.958-2.4.018-2.6a4.718,4.718,0,0,1,1.667.146v-0.283a1.047,1.047,0,0,0-1.156-1.074,1.41,1.41,0,0,0-1.139.574l-0.484-.374a1.956,1.956,0,0,1,1.623-.782,1.581,1.581,0,0,1,1.739,1.656v1.8a0.24,0.24,0,0,0,.255.256h0.082v0.593h-0.082Zm-0.838-1.887a5.463,5.463,0,0,0-1.6-.109c-1.129.127-1.294,1.53,0,1.53A1.524,1.524,0,0,0,183.738,571.428Z" transform="translate(-31.8 -547.121)"/><path class="c" d="M185.567,573.315v-6.834h0.639v6.834h-0.639Z" transform="translate(-31.8 -547.121)"/><path class="c" d="M187.479,573.315v-6.834h0.64v6.834h-0.64Z" transform="translate(-31.8 -547.121)"/><path class="c" d="M191.553,573.315v-6.379h1.467a1.469,1.469,0,0,1,1.576,1.576,1.221,1.221,0,0,1-.574,1.076,1.893,1.893,0,0,1,1.267,1.794c0,1.066-.748,1.933-2.4,1.933h-1.338Zm1.467-3.874a0.871,0.871,0,0,0,.938-0.929,0.9,0.9,0,0,0-.938-0.992h-0.83v1.921h0.83Zm-0.83.548v2.742h1.021a1.341,1.341,0,0,0,1.438-1.349,1.367,1.367,0,0,0-1.429-1.394H192.19Z" transform="translate(-31.8 -547.121)"/><path class="c" d="M199.605,569.159h0.6v4.155h-0.6V573.04a2.8,2.8,0,0,1,.018-0.383,1.743,1.743,0,0,1-1.431.746,1.654,1.654,0,0,1-1.721-1.911v-2.333h0.611v2.333a1.168,1.168,0,0,0,1.166,1.375,1.339,1.339,0,0,0,1.357-1.385v-2.323Z" transform="translate(-31.8 -547.121)"/><path class="c" d="M203.184,569.923a0.635,0.635,0,0,0-.6-0.326,0.516,0.516,0,0,0-.539.538,1.143,1.143,0,0,0,.848.754,1.612,1.612,0,0,1,1.185,1.3,1.232,1.232,0,0,1-1.393,1.211,1.75,1.75,0,0,1-1.568-.919l0.547-.255a1.178,1.178,0,0,0,1.021.646,0.662,0.662,0,0,0,.764-0.637,0.986,0.986,0,0,0-.728-0.766,1.631,1.631,0,0,1-1.294-1.312,1.094,1.094,0,0,1,1.165-1.094,1.187,1.187,0,0,1,1.1.6Z" transform="translate(-31.8 -547.121)"/><path class="c" d="M205.514,567.574a0.519,0.519,0,1,1-.52.52A0.526,0.526,0,0,1,205.514,567.574Zm-0.319,5.74v-4.155h0.639v4.155h-0.639Z" transform="translate(-31.8 -547.121)"/><path class="c" d="M210.843,573.315h-0.609v-2.333a1.169,1.169,0,0,0-1.166-1.376,1.338,1.338,0,0,0-1.358,1.332v2.377h-0.6v-4.155h0.6v0.274c0,0.136-.009.265-0.019,0.391a1.742,1.742,0,0,1,1.431-.756,1.655,1.655,0,0,1,1.722,1.913v2.333Z" transform="translate(-31.8 -547.121)"/><path class="c" d="M215.806,571.41h-3.379a1.467,1.467,0,0,0,1.512,1.43,1.628,1.628,0,0,0,1.4-.71l0.446,0.372a2.2,2.2,0,0,1-3.972-1.274,2.057,2.057,0,0,1,2.058-2.177,1.893,1.893,0,0,1,1.94,2.04v0.319Zm-3.371-.484h2.734a1.3,1.3,0,0,0-1.3-1.329A1.405,1.405,0,0,0,212.435,570.926Z" transform="translate(-31.8 -547.121)"/><path class="c" d="M218.474,569.923a0.634,0.634,0,0,0-.6-0.326,0.515,0.515,0,0,0-.538.538,1.142,1.142,0,0,0,.848.754,1.612,1.612,0,0,1,1.184,1.3,1.232,1.232,0,0,1-1.394,1.211,1.748,1.748,0,0,1-1.567-.919l0.546-.255a1.177,1.177,0,0,0,1.021.646,0.662,0.662,0,0,0,.765-0.637,0.985,0.985,0,0,0-.729-0.766,1.631,1.631,0,0,1-1.293-1.312,1.094,1.094,0,0,1,1.165-1.094,1.187,1.187,0,0,1,1.1.6Z" transform="translate(-31.8 -547.121)"/><path class="c" d="M222.191,569.923a0.636,0.636,0,0,0-.6-0.326,0.515,0.515,0,0,0-.539.538,1.141,1.141,0,0,0,.848.754,1.613,1.613,0,0,1,1.185,1.3,1.232,1.232,0,0,1-1.394,1.211,1.748,1.748,0,0,1-1.567-.919l0.546-.255a1.179,1.179,0,0,0,1.021.646,0.661,0.661,0,0,0,.765-0.637,0.984,0.984,0,0,0-.727-0.766,1.632,1.632,0,0,1-1.294-1.312,1.094,1.094,0,0,1,1.166-1.094,1.186,1.186,0,0,1,1.1.6Z" transform="translate(-31.8 -547.121)"/><path class="c" d="M227.893,571.41h-3.38a1.468,1.468,0,0,0,1.512,1.43,1.627,1.627,0,0,0,1.394-.71l0.446,0.372a2.2,2.2,0,0,1-3.972-1.274,2.057,2.057,0,0,1,2.06-2.177,1.893,1.893,0,0,1,1.939,2.04v0.319Zm-3.372-.484h2.735a1.3,1.3,0,0,0-1.3-1.329A1.407,1.407,0,0,0,224.52,570.926Z" transform="translate(-31.8 -547.121)"/><path class="c" d="M230.56,569.923a0.631,0.631,0,0,0-.6-0.326,0.516,0.516,0,0,0-.539.538,1.144,1.144,0,0,0,.848.754,1.612,1.612,0,0,1,1.184,1.3,1.232,1.232,0,0,1-1.393,1.211,1.749,1.749,0,0,1-1.567-.919l0.547-.255a1.177,1.177,0,0,0,1.02.646,0.662,0.662,0,0,0,.765-0.637,0.984,0.984,0,0,0-.729-0.766,1.631,1.631,0,0,1-1.293-1.312,1.094,1.094,0,0,1,1.166-1.094,1.186,1.186,0,0,1,1.1.6Z" transform="translate(-31.8 -547.121)"/><path class="c" d="M235.811,553.815a1.573,1.573,0,1,1-1.559-1.531A1.541,1.541,0,0,1,235.811,553.815Zm-2.752,0a1.191,1.191,0,0,0,1.194,1.222,1.174,1.174,0,0,0,1.168-1.215A1.182,1.182,0,1,0,233.059,553.815ZM234,554.606h-0.354v-1.53a4.341,4.341,0,0,1,.588-0.046,0.81,0.81,0,0,1,.523.122,0.383,0.383,0,0,1,.157.325,0.394,0.394,0,0,1-.317.364v0.018a0.434,0.434,0,0,1,.271.375,1.3,1.3,0,0,0,.112.372h-0.373a1.144,1.144,0,0,1-.122-0.372,0.271,0.271,0,0,0-.318-0.234H234v0.606Zm0.009-.858h0.169c0.2,0,.353-0.065.353-0.224,0-.14-0.1-0.233-0.327-0.233a0.767,0.767,0,0,0-.2.019v0.438Z" transform="translate(-31.8 -547.121)"/></svg>