<svg xmlns="http://www.w3.org/2000/svg" width="38.487" height="38.487" viewBox="0 0 38.487 38.487"><defs><style>.a{fill:#52338f;}.b{fill:#f9e6a0;}</style></defs><title>amp</title><circle class="a" cx="19.243" cy="19.243" r="19.243"/><path class="b" d="M25.558,24.177A15.239,15.239,0,0,0,27.349,20.7l-3.09-2.187a14.122,14.122,0,0,1-1.312,3.131q-1.614-1.586-3.1-3.213c2.068-1.06,4.464-2.5,4.613-5.07,0.146-2.526-1.89-4.2-4.221-4.595-2.208-.373-4.946.077-6.274,2.071-1.481,2.223-.41,4.942.947,6.924-1.6.88-3.3,2.135-3.746,4.009a5.4,5.4,0,0,0,1.42,5.015c2.862,2.888,7.756,2.256,10.68-.151l2.762,2.68,2.447-2.379Zm-8.467-11.3a1.845,1.845,0,0,1,2.267-1.448,1.779,1.779,0,0,1,1.148,2.528,5.257,5.257,0,0,1-2.454,2.182A4.579,4.579,0,0,1,17.09,12.875Zm-1.4,11.608c-1.54-1.549-.372-3.388,1.1-4.395q1.025,1.176,3.992,4.143C19.381,25.334,17.1,25.9,15.692,24.483Z" transform="translate(0.015 0.005)"/></svg>