<?xml version="1.0" encoding="iso-8859-1"?>
<!-- Generator: Adobe Illustrator 19.1.0, SVG Export Plug-In . SVG Version: 6.00 Build 0)  -->
<svg version="1.1" id="Layer_1" xmlns="http://www.w3.org/2000/svg" xmlns:xlink="http://www.w3.org/1999/xlink" x="0px" y="0px"
	 width="684px" height="306px" viewBox="0 0 684 306" style="enable-background:new 0 0 684 306;" xml:space="preserve">
<g>
	<g>
		<path style="fill:#6D6E71;" d="M495.911,130.113h10.855c0.074-15.964,0.336-25.402,0.784-28.312
			c0.819-6.715,3.635-12.03,8.449-15.947c4.813-3.917,11.619-5.875,20.422-5.875c6.341,0,13.504,1.455,21.487,4.364v23.277
			c-4.403-1.268-8.022-1.903-10.854-1.903c-3.581,0-6.194,0.748-7.833,2.238c-1.195,1.119-1.791,3.433-1.791,6.939l-0.113,15.219
			h19.36v25.851h-19.36v95.905h-30.55v-95.905h-10.855V130.113z"/>
		<path style="fill:#6D6E71;" d="M586.5,79.979c5.356,0,9.948,1.94,13.78,5.819c3.83,3.88,5.747,8.58,5.747,14.099
			c0,5.447-1.898,10.092-5.691,13.934c-3.795,3.843-8.333,5.763-13.613,5.763c-5.432,0-10.063-1.958-13.894-5.876
			c-3.83-3.916-5.745-8.672-5.745-14.268c0-5.371,1.896-9.959,5.689-13.764C576.567,81.882,581.142,79.979,586.5,79.979z
			 M571.224,130.113h30.55v121.756h-30.55V130.113z"/>
		<path style="fill:#6D6E71;" d="M633.22,85.24h30.552v44.874H681.9v26.298h-18.127v95.458H633.22v-95.458h-15.667v-26.298h15.667
			V85.24z"/>
	</g>
	<g>
		<path style="fill:none;" d="M138.092,57.474c-43.136,0-78.105,34.972-78.105,78.106c0,43.136,34.968,78.1,78.105,78.1
			c43.134,0,78.103-34.964,78.103-78.1C216.194,92.446,181.225,57.474,138.092,57.474z"/>
		<path style="fill:#ED1C24;" d="M351.171,1c-44.407,0-83.786,21.514-108.295,54.682C218.364,22.514,178.983,1,134.578,1
			C60.255,1,0,61.255,0,135.58C0,135.702,0,305,0,305h56.403v-59.913c22.04,15.761,49.012,25.072,78.175,25.072
			c44.406,0,83.786-21.514,108.298-54.684c24.51,33.17,63.888,54.684,108.295,54.684c74.324,0,134.58-60.258,134.58-134.579
			c0-9.65-1.036-19.056-2.967-28.126h-0.093l0.054-0.076H316.677v56.397h107.329c-11.314,29.197-39.648,49.904-72.835,49.904
			c-43.134,0-78.102-34.964-78.102-78.1c0-43.134,34.968-78.106,78.102-78.106c30.158,0,56.308,17.101,69.326,42.126h60.349
			C465.105,42.754,413.035,1,351.171,1z M138.092,213.68c-43.136,0-78.105-34.964-78.105-78.1c0-43.134,34.968-78.106,78.105-78.106
			c43.134,0,78.103,34.972,78.103,78.106C216.194,178.716,181.225,213.68,138.092,213.68z"/>
	</g>
</g>
</svg>
