<?xml version="1.0" encoding="iso-8859-1"?>
<!-- Generator: Adobe Illustrator 19.1.0, SVG Export Plug-In . SVG Version: 6.00 Build 0)  -->
<svg version="1.1" id="Layer_1" xmlns="http://www.w3.org/2000/svg" xmlns:xlink="http://www.w3.org/1999/xlink" x="0px" y="0px"
	 width="46px" height="46px" viewBox="0 0 46 46" style="enable-background:new 0 0 46 46;" xml:space="preserve">
<g>
	<circle style="fill:#EB212E;" cx="23" cy="23" r="22.5"/>
	<path style="fill:#FFFFFF;" d="M29.996,19.415c0.008,0.153,0.013,0.307,0.013,0.466c0,4.77-3.632,10.274-10.276,10.274
		c-2.044,0-3.94-0.589-5.539-1.62c0.284,0.036,0.567,0.05,0.864,0.05c1.689,0,3.248-0.579,4.477-1.54
		c-1.578-0.034-2.905-1.085-3.373-2.515c0.219,0.049,0.452,0.062,0.683,0.062c0.332,0,0.653-0.038,0.948-0.12
		c-1.641-0.335-2.893-1.792-2.893-3.547c0-0.014,0-0.028,0-0.039c0.482,0.266,1.051,0.434,1.631,0.445
		c-0.96-0.642-1.604-1.75-1.604-3.001c0-0.666,0.183-1.284,0.494-1.825c1.784,2.192,4.439,3.63,7.441,3.776
		c-0.059-0.262-0.083-0.537-0.083-0.823c0-1.989,1.61-3.611,3.608-3.611c1.031,0,1.975,0.438,2.639,1.143
		c0.821-0.164,1.592-0.459,2.289-0.874c-0.269,0.846-0.841,1.549-1.589,1.996c0.727-0.093,1.424-0.283,2.08-0.57
		C31.314,18.27,30.712,18.905,29.996,19.415z"/>
</g>
</svg>
