<?xml version="1.0" encoding="iso-8859-1"?>
<!-- Generator: Adobe Illustrator 19.1.0, SVG Export Plug-In . SVG Version: 6.00 Build 0)  -->
<svg version="1.1" id="Layer_1" xmlns="http://www.w3.org/2000/svg" xmlns:xlink="http://www.w3.org/1999/xlink" x="0px" y="0px"
	 width="46px" height="46px" viewBox="0 0 46 46" style="enable-background:new 0 0 46 46;" xml:space="preserve">
<g>
	<circle style="fill:#EB212E;" cx="23" cy="23" r="22.5"/>
	<path style="fill:#FFFFFF;" d="M31.056,18.045c-0.479-0.871-0.998-1.027-2.054-1.086c-0.528-0.029-1.448-0.059-2.524-0.078
		c-1.086-0.01-2.328-0.02-3.473-0.02c-2.299,0-4.95,0.029-6.007,0.098c-1.047,0.059-1.565,0.215-2.054,1.086
		c-0.245,0.43-0.43,1.017-0.558,1.819c-0.117,0.802-0.186,1.82-0.186,3.131v0.01c0,2.602,0.254,4.099,0.743,4.95
		c0.489,0.861,1.008,1.017,2.054,1.086c0.528,0.039,1.458,0.059,2.534,0.078c1.086,0.01,2.328,0.019,3.473,0.019
		c2.299,0,4.95-0.029,5.997-0.098c1.057-0.068,1.575-0.225,2.054-1.086c0.254-0.421,0.43-1.008,0.558-1.82
		c0.127-0.802,0.186-1.829,0.186-3.13v-0.01C31.799,20.383,31.555,18.906,31.056,18.045z M21.254,26.214v-6.447l4.989,3.238
		L21.254,26.214z"/>
</g>
</svg>
