<?xml version="1.0" encoding="iso-8859-1"?>
<!-- Generator: Adobe Illustrator 19.1.0, SVG Export Plug-In . SVG Version: 6.00 Build 0)  -->
<svg version="1.1" id="Layer_1" xmlns="http://www.w3.org/2000/svg" xmlns:xlink="http://www.w3.org/1999/xlink" x="0px" y="0px"
	 width="46px" height="46px" viewBox="0 0 46 46" style="enable-background:new 0 0 46 46;" xml:space="preserve">
<g>
	<circle style="fill:#EB212E;" cx="23" cy="23" r="22.5"/>
	<path style="fill:#FFFFFF;" d="M18.45,16.577c0,0.981-0.72,1.773-1.912,1.773c-1.136,0-1.854-0.791-1.854-1.773
		c0-1.009,0.745-1.775,1.896-1.775C17.731,14.802,18.427,15.569,18.45,16.577z M14.775,31.197V19.753h3.553v11.444H14.775z
		 M20.461,23.408c0-1.433-0.05-2.625-0.098-3.655h3.089l0.17,1.6h0.065c0.469-0.754,1.619-1.852,3.535-1.852
		c2.329,0,4.094,1.57,4.094,4.938v6.759h-3.56v-6.339c0-1.479-0.511-2.479-1.799-2.479c-0.98,0-1.573,0.672-1.823,1.327
		c-0.099,0.241-0.12,0.569-0.12,0.893v6.598h-3.552V23.408z"/>
</g>
</svg>
