<?xml version="1.0" encoding="iso-8859-1"?>
<!-- Generator: Adobe Illustrator 19.1.0, SVG Export Plug-In . SVG Version: 6.00 Build 0)  -->
<svg version="1.1" id="Layer_1" xmlns="http://www.w3.org/2000/svg" xmlns:xlink="http://www.w3.org/1999/xlink" x="0px" y="0px"
	 width="46px" height="46px" viewBox="0 0 46 46" style="enable-background:new 0 0 46 46;" xml:space="preserve">
<g>
	<circle style="fill:#EB212E;" cx="23" cy="23" r="22.5"/>
	<path style="fill:#FFFFFF;" d="M23.465,29.318c0-0.149-0.016-0.29-0.053-0.428c-0.032-0.139-0.061-0.262-0.095-0.378
		c-0.035-0.118-0.101-0.24-0.188-0.367c-0.086-0.128-0.158-0.237-0.221-0.321c-0.063-0.088-0.158-0.193-0.28-0.313
		c-0.128-0.122-0.223-0.208-0.289-0.269c-0.075-0.063-0.188-0.151-0.342-0.275c-0.162-0.117-0.267-0.199-0.326-0.235
		c-0.063-0.046-0.182-0.129-0.358-0.249c-0.167-0.116-0.27-0.194-0.319-0.217c-0.11-0.017-0.292-0.025-0.525-0.025
		c-0.384,0-0.76,0.027-1.123,0.074c-0.363,0.052-0.751,0.136-1.138,0.266c-0.397,0.122-0.739,0.288-1.048,0.483
		c-0.289,0.201-0.53,0.466-0.721,0.791c-0.197,0.338-0.281,0.716-0.281,1.141c0,0.478,0.11,0.904,0.371,1.28
		c0.254,0.38,0.575,0.673,0.981,0.89c0.405,0.212,0.828,0.376,1.278,0.48c0.439,0.105,0.893,0.16,1.346,0.16
		c0.407,0,0.809-0.044,1.18-0.13c0.381-0.094,0.739-0.227,1.067-0.415c0.34-0.187,0.597-0.447,0.795-0.78
		C23.365,30.152,23.465,29.766,23.465,29.318z M22.2,20.199c0-0.426-0.06-0.871-0.18-1.348c-0.119-0.479-0.283-0.939-0.5-1.382
		c-0.21-0.446-0.514-0.813-0.893-1.105c-0.371-0.287-0.792-0.434-1.261-0.434c-0.658,0-1.158,0.248-1.524,0.732
		c-0.363,0.489-0.539,1.072-0.539,1.747c0,0.333,0.043,0.677,0.119,1.046c0.082,0.367,0.21,0.736,0.376,1.101
		c0.17,0.365,0.364,0.701,0.591,0.99c0.233,0.294,0.504,0.531,0.829,0.718c0.321,0.177,0.668,0.273,1.035,0.273
		c0.683,0,1.172-0.212,1.478-0.64C22.042,21.47,22.2,20.906,22.2,20.199z M20.803,15.174h4.63l-1.428,0.837h-1.434
		c0.504,0.318,0.893,0.755,1.166,1.328c0.271,0.573,0.41,1.167,0.41,1.791c0,0.521-0.083,0.987-0.24,1.39
		c-0.159,0.403-0.357,0.736-0.59,0.975c-0.229,0.253-0.468,0.477-0.697,0.684c-0.239,0.209-0.433,0.425-0.59,0.651
		c-0.173,0.222-0.248,0.457-0.248,0.713c0,0.183,0.054,0.361,0.169,0.537c0.12,0.181,0.275,0.35,0.46,0.51
		c0.191,0.16,0.392,0.331,0.625,0.51c0.219,0.174,0.445,0.373,0.672,0.587c0.226,0.214,0.436,0.445,0.612,0.695
		c0.195,0.253,0.35,0.554,0.458,0.898c0.115,0.351,0.173,0.726,0.173,1.133c0,1.123-0.488,2.119-1.482,2.983
		c-1.063,0.921-2.552,1.387-4.442,1.387c-0.407,0-0.837-0.038-1.267-0.109c-0.426-0.069-0.859-0.189-1.286-0.355
		c-0.431-0.162-0.815-0.369-1.153-0.612c-0.323-0.24-0.598-0.555-0.806-0.939c-0.218-0.391-0.32-0.817-0.32-1.288
		c0-0.428,0.128-0.905,0.39-1.427c0.22-0.457,0.569-0.841,1.017-1.17c0.453-0.328,0.96-0.578,1.53-0.754
		c0.569-0.171,1.122-0.297,1.646-0.379c0.525-0.079,1.048-0.128,1.587-0.142c-0.458-0.59-0.683-1.112-0.683-1.578
		c0-0.08,0.007-0.168,0.027-0.246c0.013-0.084,0.025-0.147,0.055-0.204c0.021-0.057,0.044-0.138,0.08-0.231
		c0.04-0.094,0.063-0.172,0.072-0.226c-0.284,0.037-0.523,0.053-0.739,0.053c-1.046,0-1.956-0.346-2.703-1.038
		c-0.747-0.693-1.121-1.557-1.121-2.598c0-0.993,0.334-1.878,1.005-2.66c0.661-0.776,1.486-1.273,2.471-1.49
		C19.489,15.241,20.154,15.174,20.803,15.174z M31.805,17.879v1.354h-2.717v2.712h-1.357v-2.712h-2.697v-1.354h2.697v-2.705h1.357
		v2.705H31.805z"/>
</g>
</svg>
