<svg xmlns="http://www.w3.org/2000/svg" width="25" height="20" viewBox="0 0 25 20"><defs><style>.a{fill:#522e91;}</style></defs><title>icon-email</title><path class="a" d="M399.953,2.5H381.045A3.194,3.194,0,0,0,378,5.822V19.179a3.191,3.191,0,0,0,3.045,3.321h18.908A3.2,3.2,0,0,0,403,19.179V5.822A3.193,3.193,0,0,0,399.953,2.5Zm-0.687,2.554-8.625,6.671-8.1-6.671h16.725Zm0.687,14.893H381.045a0.734,0.734,0,0,1-.7-0.768V6.44l10.251,8.447L400.655,7.1V19.179A0.732,0.732,0,0,1,399.953,19.947Z" transform="translate(-378 -2.5)"/></svg>