<svg xmlns="http://www.w3.org/2000/svg" width="242.323" height="183.24" viewBox="0 0 242.323 183.24"><defs><style>.a{fill:#522e91;}.b{fill:#f9e6a0;}.c{fill:#56c3be;}</style></defs><title>logo</title><path class="a" d="M123.665,55.2C98.94,51.075,70.35,65.329,59.251,94.888c11.036-19.976,26.584-36.169,54.641-34.942,17.546,0.768,31.187,11.689,47.382,13.114,10.05,0.884,22.446-.04,31.289-5.316,9.612-5.736,15.2-19.4,7.04-28.711-4.3-4.905-10.3-5.741-15.824-2.534-2.564,1.488-4.467,7.669.394,10.6-2.174-5.482,5.813-7.528,9.606-1.75,4.05,6.168-.787,13.807-11.371,17.229C158.4,70.339,138.969,57.749,123.665,55.2Z"/><path class="b" d="M139.3,36.474A29.056,29.056,0,0,0,108.151,50.31l6.638,2.038a19.54,19.54,0,0,1,10.034-9.233c12.419-5.191,26.123.179,30.663,13.13C155.527,48.232,149.8,39.225,139.3,36.474Z"/><path class="b" d="M91.394,36.261s11.826,15,15.181,9.786C110.019,40.7,91.394,36.261,91.394,36.261Z"/><path class="b" d="M109.908,21.742S114,40.4,119.294,37.172C124.728,33.863,109.908,21.742,109.908,21.742Z"/><path class="b" d="M131.953,15.813s-5.438,18.31.753,18.047C139.063,33.592,131.953,15.813,131.953,15.813Z"/><path class="b" d="M157.354,21.82s-14.837,12.024-9.584,15.309C153.165,40.5,157.354,21.82,157.354,21.82Z"/><path class="b" d="M173.769,39.258s-18.568,4.464-15.241,9.691C161.944,54.316,173.769,39.258,173.769,39.258Z"/><path class="c" d="M81.053,72.022c27.841-18.7,45.908.412,38.1,13.1-6.634,10.774-20.553,2.971-16.558-4.648-0.532-1.353-9.035.672-4.095,10.192,3.822,7.365,15.883,10.513,25.144-.044C134.851,77.84,116.47,46.369,81.053,72.022Z"/><path class="c" d="M220.939,51.97c15.183-32.782-17.385-62.8-45.081-48.161-19.437,10.274-10.788,32.347,3.234,29.72,9.069-1.7,5.774-7.593,5.774-7.593,0.119,2.522-6.083,4.088-8.705.667a10.52,10.52,0,0,1,4.88-15.429c20.3-9.382,38.814,15.293,33.637,36.151-7.062,28.448-47.13,45.331-91.582,17.614C173.664,99.713,211.772,71.766,220.939,51.97Z"/><path class="c" d="M111.178,69.993C106.149,65.917,86.672,64.365,68.652,86c19.778-19.784,33.791-17.3,37.907-15.451,6.433,2.891,6.628,12.979-.009,14.761C118,83.585,116.381,74.209,111.178,69.993Z"/><path class="c" d="M205.22,20.473c-4.872-6.015-16.2-7.9-21.91-.805,4.683-2.076,9.166-3.021,16.034.939,6.548,3.777,15.687,19.654,4.471,39.239C213.6,48.293,213.326,30.48,205.22,20.473Z"/><path class="a" d="M69.676,105.3l2.81,15.815q2.481-1.535,5.183-3.3t5.095-3.646a44.862,44.862,0,0,0,4.241-3.762,12.43,12.43,0,0,0,2.591-3.57l0.3-.691a1.765,1.765,0,0,0,.15-0.615,10.859,10.859,0,0,1-2.664.307,6.823,6.823,0,0,1-4.148-1.113,2.208,2.208,0,0,1-.69-2.956,6.079,6.079,0,0,1,3.054-2.84,11.242,11.242,0,0,1,5.083-1.152q3.492,0,5.042,1.958t-0.069,5.642q-1.922,4.377-7.517,8.752a172.2,172.2,0,0,1-15.023,10.211l0.506,2.687q0.267,1.307.473,2.763a10.923,10.923,0,0,0,.73,2.725,5.024,5.024,0,0,0,1.559,2.073,4.49,4.49,0,0,0,2.837.806,11.351,11.351,0,0,0,6.388-2.341,27.855,27.855,0,0,0,6.2-6.027h4.216a44.06,44.06,0,0,1-6.667,7.639,31.525,31.525,0,0,1-6.026,4.261,18.247,18.247,0,0,1-5.283,1.881,26.576,26.576,0,0,1-4.4.422q-5.9,0-8.781-2.5t-4.273-8.1a48.425,48.425,0,0,1-8.645,4.875,76.366,76.366,0,0,1-10.075,3.608,80.963,80.963,0,0,1-10.751,2.264,75.536,75.536,0,0,1-10.515.768A35.479,35.479,0,0,1,8.9,140.578a14.61,14.61,0,0,1-6.421-4.03A8.521,8.521,0,0,1,.4,130.982a14.99,14.99,0,0,1,1.329-6.18,23.427,23.427,0,0,1,8.625-9.9,43.309,43.309,0,0,1,14.681-6.142q-4.769-2.3-5.984-5.3a7.81,7.81,0,0,1,.235-6.3A16.776,16.776,0,0,1,22.961,92.1a25.858,25.858,0,0,1,6.445-4.53,42.237,42.237,0,0,1,8.84-3.263,44.289,44.289,0,0,1,10.975-1.267,43.4,43.4,0,0,1,6.362.46,16.945,16.945,0,0,1,5.271,1.574,6.065,6.065,0,0,1,2.961,2.994q0.8,1.882-.448,4.722a10.412,10.412,0,0,1-3.829,4.606,9.863,9.863,0,0,1-5.56,1.689A7.719,7.719,0,0,1,48.5,97.01a14.249,14.249,0,0,0,4.138-1.881,8.152,8.152,0,0,0,3.227-3.647,3.306,3.306,0,0,0,.253-2.5,3.523,3.523,0,0,0-1.47-1.727,7.6,7.6,0,0,0-2.633-1,17.368,17.368,0,0,0-3.357-.308,20.54,20.54,0,0,0-6.186.922A21.955,21.955,0,0,0,37.2,89.295a20.393,20.393,0,0,0-4.073,3.377,12.141,12.141,0,0,0-3.4,6.641,7.162,7.162,0,0,0,.222,3.608,7.477,7.477,0,0,0,2.518,3.455,13.07,13.07,0,0,0,6.215,2.3,34.038,34.038,0,0,0-14.5,5.182,22.445,22.445,0,0,0-8.473,9.558,11.346,11.346,0,0,0-1.1,5.105,5.917,5.917,0,0,0,1.74,3.992,11.137,11.137,0,0,0,4.875,2.611,30.512,30.512,0,0,0,8.431.96,56.932,56.932,0,0,0,8.855-.691,66.386,66.386,0,0,0,8.337-1.843,52.263,52.263,0,0,0,7.262-2.687,35.429,35.429,0,0,0,5.786-3.3l-0.005-.537L55.945,105.3H69.676Z"/><path class="a" d="M126.083,102a26.444,26.444,0,0,1,7.665.922,9.424,9.424,0,0,1,4.411,2.572,7.143,7.143,0,0,1,1.73,3.877,14.655,14.655,0,0,1-.223,4.76h0.722a37.271,37.271,0,0,0,9.847-1.305,44.619,44.619,0,0,0,8.676-3.3l0.9,2.073a30.115,30.115,0,0,1-9.435,4.069,74.938,74.938,0,0,1-11.757,2.226q-0.338.769-.613,1.536t-0.648,1.612a34.269,34.269,0,0,1-11.927,14.817,30.128,30.128,0,0,1-17.535,5.373,30.822,30.822,0,0,1-7.605-.921,13.34,13.34,0,0,1-5.938-3.071,9.134,9.134,0,0,1-2.812-5.528q-0.505-3.377,1.687-8.368A37.241,37.241,0,0,1,97.5,116.2a35.381,35.381,0,0,1,6.888-6.91,37.372,37.372,0,0,1,9.519-5.22A33.884,33.884,0,0,1,126.083,102Zm-13.4,33.4a16.692,16.692,0,0,0,11.117-4.03,30.87,30.87,0,0,0,8-11.4l0.4-.922a4.128,4.128,0,0,0,.284-0.921q-3.427-.154-4.56-1t-0.258-2.84a4.745,4.745,0,0,1,2.3-2.5,9.985,9.985,0,0,1,3.968-.806,4.55,4.55,0,0,0-1.993-3.784,8.661,8.661,0,0,0-4.508-1.053,15.847,15.847,0,0,0-6.982,1.578,24.807,24.807,0,0,0-5.968,4.042,30.8,30.8,0,0,0-4.719,5.426A36.21,36.21,0,0,0,106.5,123a15.755,15.755,0,0,0-1.627,6.159,6.163,6.163,0,0,0,1.1,3.771,5.5,5.5,0,0,0,2.87,1.924A13.289,13.289,0,0,0,112.684,135.4Z"/><path class="a" d="M171.627,90.715L166.5,102.384h9.274l-1.214,2.763h-9.274L155.031,128.5q-0.4.92-.8,2.106a5.8,5.8,0,0,0-.33,2.259,2.537,2.537,0,0,0,.9,1.8,4.376,4.376,0,0,0,2.873.726,15.224,15.224,0,0,0,7.113-2.073,25.745,25.745,0,0,0,7.4-6.3h4.456a57.048,57.048,0,0,1-7.75,7.639,34.6,34.6,0,0,1-6.749,4.261,22.631,22.631,0,0,1-5.824,1.881,30.446,30.446,0,0,1-4.7.422,16.872,16.872,0,0,1-6.652-1.034,6.317,6.317,0,0,1-3.175-2.643,5.771,5.771,0,0,1-.6-3.563,14.122,14.122,0,0,1,1.1-3.868l10.968-24.975h-4.095l1.214-2.763h4.095l4.653-10.6Z"/><path class="a" d="M185.568,91.329a7.955,7.955,0,0,1,3.874-3.608,13.566,13.566,0,0,1,6.335-1.535,7.294,7.294,0,0,1,4.987,1.535,2.877,2.877,0,0,1,.824,3.608,7.7,7.7,0,0,1-3.994,3.608,14.441,14.441,0,0,1-6.3,1.459,7.392,7.392,0,0,1-5.02-1.459A2.857,2.857,0,0,1,185.568,91.329Zm9.357,11.055-11.463,26.1q-0.338.769-.722,1.919a6.131,6.131,0,0,0-.332,2.264,2.983,2.983,0,0,0,.783,1.919,3.5,3.5,0,0,0,2.657.806q5.9,0,12.347-8.368h4.456a42.492,42.492,0,0,1-6.727,7.639,31.116,31.116,0,0,1-6.207,4.261,19.54,19.54,0,0,1-5.523,1.881,28.763,28.763,0,0,1-4.521.422,15.512,15.512,0,0,1-6.41-1.036,6.346,6.346,0,0,1-3.053-2.649,5.8,5.8,0,0,1-.584-3.608,14.33,14.33,0,0,1,1.083-3.839l12.171-27.715h12.044Z"/><path class="a" d="M231.072,114.144a6.813,6.813,0,0,0,2.242-1.676,8.119,8.119,0,0,0,1.479-2.133q0.869-1.979-.453-3.084a6.3,6.3,0,0,0-4.092-1.1,13.233,13.233,0,0,0-6.273,1.532,21.924,21.924,0,0,0-5.25,3.866,29.258,29.258,0,0,0-4.12,5.131,40.923,40.923,0,0,0-2.913,5.4,18.894,18.894,0,0,0-1.876,6.739,5.705,5.705,0,0,0,1.229,4.058,6.65,6.65,0,0,0,3.583,1.991,22.26,22.26,0,0,0,5.064.536,29.825,29.825,0,0,0,14.472-3.608,12.492,12.492,0,0,1-3.332,4.568,16.923,16.923,0,0,1-4.877,2.879,27.019,27.019,0,0,1-5.854,1.536,41.424,41.424,0,0,1-6.1.46,36.263,36.263,0,0,1-8.164-.883,13.527,13.527,0,0,1-6.2-3.032,9.128,9.128,0,0,1-2.882-5.642q-0.515-3.493,1.813-8.79a41.415,41.415,0,0,1,3.82-6.641,32.693,32.693,0,0,1,6.433-6.832,35.138,35.138,0,0,1,9.252-5.3A33.233,33.233,0,0,1,230.383,102q7.345,0,10.2,2.419t1.032,6.564a8.5,8.5,0,0,1-2.678,3.493,6.684,6.684,0,0,1-4.109,1.267A4.236,4.236,0,0,1,231.072,114.144Z"/><path class="c" d="M6.946,173.114H5.225V153.136H0V151.6H12.355v1.536H6.946v19.978Z"/><path class="c" d="M17.15,173.422q-6.731,0-6.731-5.5v-2.551q0-3.043,2.121-4.088a5.085,5.085,0,0,1,2.182-.523,9.119,9.119,0,0,1,5.809,1.721,3.671,3.671,0,0,0-.984-2.69q-0.985-1-3.78-1l0.092-1.321a8.843,8.843,0,0,1,3.689.584,11.269,11.269,0,0,1,1.137.677,2.316,2.316,0,0,1,.769.891q0.276,0.553.461,0.968a3.611,3.611,0,0,1,.246,1.122q0.092,1.076.092,2.244v9.159Q19.055,173.421,17.15,173.422Zm3.381-1.721v-7.9a14.687,14.687,0,0,0-5.225-1.445,2.262,2.262,0,0,0-.369-0.031,2.941,2.941,0,0,0-2,.722,3.055,3.055,0,0,0-.83,2.413v2.674a3.163,3.163,0,0,0,2.213,3.319,8.637,8.637,0,0,0,2.919.461A25.542,25.542,0,0,0,20.531,171.7Z"/><path class="c" d="M26.923,158.761a6.623,6.623,0,0,1,4.395-1.321,5.924,5.924,0,0,1,2.736.584,4.454,4.454,0,0,1,2.612,4.456v10.634H34.976V162.572a3.438,3.438,0,0,0-.86-2.489A4.162,4.162,0,0,0,31,159.006a8,8,0,0,0-3.95,1.045v13.062H25.325v-15.4h1.721Z"/><path class="c" d="M42.291,158.761a6.623,6.623,0,0,1,4.395-1.321,5.924,5.924,0,0,1,2.736.584,4.454,4.454,0,0,1,2.612,4.456v10.634H50.344V162.572a3.439,3.439,0,0,0-.86-2.489,4.162,4.162,0,0,0-3.12-1.076,8,8,0,0,0-3.95,1.045v13.062H40.693v-15.4h1.721Z"/><path class="c" d="M58.55,152.322a1.05,1.05,0,0,1-1.029,1.029,0.965,0.965,0,0,1-.722-0.322,1.023,1.023,0,0,1-.308-0.722A0.97,0.97,0,0,1,56.8,151.6a1.006,1.006,0,0,1,.738-0.308,0.957,0.957,0,0,1,.722.308A1.014,1.014,0,0,1,58.55,152.322Zm-0.184,20.792H56.644v-15.4h1.721v15.4Z"/><path class="c" d="M64.574,158.761a6.623,6.623,0,0,1,4.395-1.321,5.924,5.924,0,0,1,2.736.584,4.454,4.454,0,0,1,2.612,4.456v10.634H72.626V162.572a3.438,3.438,0,0,0-.86-2.489,4.162,4.162,0,0,0-3.12-1.076,8,8,0,0,0-3.95,1.045v13.062H62.976v-15.4H64.7Z"/><path class="c" d="M85.811,179.569l-0.461-1.322a3.075,3.075,0,0,0,2.029-3.2v-3.811a4.361,4.361,0,0,1-4.072,2.243,5.871,5.871,0,0,1-4.288-1.475,5.759,5.759,0,0,1-1.506-4.3v-4.58a5.483,5.483,0,0,1,1.583-4.2,6.087,6.087,0,0,1,4.348-1.491A4.441,4.441,0,0,1,87.5,159.5l-0.123-1.782H89.1v17.365A4.1,4.1,0,0,1,85.811,179.569ZM87.379,167.8v-5.01a3.351,3.351,0,0,0-1.23-2.843,4.634,4.634,0,0,0-2.889-.937,4.265,4.265,0,0,0-2.843,1,4.064,4.064,0,0,0-1.183,3.273v4.7a3.73,3.73,0,0,0,1.091,2.919,4.1,4.1,0,0,0,2.858.984,4.373,4.373,0,0,0,2.982-1.06A3.806,3.806,0,0,0,87.379,167.8Z"/><path class="b" d="M125.706,163.431a0.963,0.963,0,0,1-.038.3l-0.083.3a4.654,4.654,0,0,1-.926,1.678,8.156,8.156,0,0,1-1.693,1.54,10.809,10.809,0,0,1-2.233,1.173,8.77,8.77,0,0,1-2.6.575,28.958,28.958,0,0,1-2.529,5.952,18.847,18.847,0,0,1-3.5,4.482,14.624,14.624,0,0,1-4.37,2.827,13.339,13.339,0,0,1-5.147.987,8.99,8.99,0,0,1-4.426-.941,5.908,5.908,0,0,1-2.431-2.414,7.2,7.2,0,0,1-.773-3.332,13.415,13.415,0,0,1,.5-3.7,13.556,13.556,0,0,1,3.405-6.044,15.067,15.067,0,0,1,5.471-3.562,5.851,5.851,0,0,1-2.288-3.172,7.134,7.134,0,0,1,.083-3.768,11.2,11.2,0,0,1,1.4-3.034,11.364,11.364,0,0,1,2.455-2.711,13.073,13.073,0,0,1,3.37-1.954,11.126,11.126,0,0,1,4.187-.759,10.685,10.685,0,0,1,2.428.276,4.934,4.934,0,0,1,2.013.943,3.377,3.377,0,0,1,1.133,1.792,5.418,5.418,0,0,1-.166,2.827,6.364,6.364,0,0,1-1.457,2.758,2.9,2.9,0,0,1-2.119,1.011,2.485,2.485,0,0,1-2.091-1.241,5.113,5.113,0,0,0,2.8-3.309,3.026,3.026,0,0,0,.095-1.495,2.147,2.147,0,0,0-.563-1.033,2.409,2.409,0,0,0-1.006-.6,4.348,4.348,0,0,0-1.281-.183,5.258,5.258,0,0,0-2.359.551,7.511,7.511,0,0,0-2.012,1.448,9.914,9.914,0,0,0-1.558,2.046,10.29,10.29,0,0,0-1.009,2.39,12.967,12.967,0,0,0-.3,1.563,6.642,6.642,0,0,0,.055,2.114,4.621,4.621,0,0,0,.965,2.068,4.53,4.53,0,0,0,2.43,1.425,10.516,10.516,0,0,0-5.529,3.1,13.322,13.322,0,0,0-3.223,5.722,7.129,7.129,0,0,0,.254,5.447q1.174,2.138,4.9,2.136a9.083,9.083,0,0,0,3.976-.827,9.627,9.627,0,0,0,3.023-2.274,14.311,14.311,0,0,0,2.227-3.379,32.25,32.25,0,0,0,1.633-4.136l-1.7-.184a15.007,15.007,0,0,0-1.628-.092A5.1,5.1,0,0,0,109,170.784l-0.308-.046a7.685,7.685,0,0,1,3.117-4.022,9.811,9.811,0,0,1,5.6-1.54,13.359,13.359,0,0,1,1.853.114,11.206,11.206,0,0,0,1.622.116,7.656,7.656,0,0,0,2.61-.46,3.67,3.67,0,0,0,1.939-1.516h0.276Z"/><path class="c" d="M142.427,173.114h-1.721v-11h-9.774v11h-1.721V151.6h1.721v8.82h9.774V151.6h1.721v21.514Z"/><path class="c" d="M152.755,173.422q-6.731,0-6.731-5.5v-2.551q0-3.043,2.121-4.088a5.084,5.084,0,0,1,2.182-.523,9.119,9.119,0,0,1,5.809,1.721,3.671,3.671,0,0,0-.984-2.69q-0.985-1-3.78-1l0.092-1.321a8.843,8.843,0,0,1,3.689.584,11.269,11.269,0,0,1,1.137.677,2.317,2.317,0,0,1,.769.891q0.276,0.553.461,0.968a3.611,3.611,0,0,1,.246,1.122q0.092,1.076.092,2.244v9.159Q154.66,173.421,152.755,173.422Zm3.381-1.721v-7.9a14.687,14.687,0,0,0-5.225-1.445,2.262,2.262,0,0,0-.369-0.031,2.941,2.941,0,0,0-2,.722,3.055,3.055,0,0,0-.83,2.413v2.674a3.163,3.163,0,0,0,2.213,3.319,8.637,8.637,0,0,0,2.919.461A25.542,25.542,0,0,0,156.136,171.7Z"/><path class="c" d="M163.419,152.322a1.05,1.05,0,0,1-1.029,1.029,0.965,0.965,0,0,1-.722-0.322,1.023,1.023,0,0,1-.308-0.722,0.97,0.97,0,0,1,.308-0.707,1.007,1.007,0,0,1,.738-0.308,0.957,0.957,0,0,1,.722.308A1.014,1.014,0,0,1,163.419,152.322Zm-0.184,20.792h-1.721v-15.4h1.721v15.4Z"/><path class="c" d="M174.976,159.283a9.281,9.281,0,0,0-2.367-.307,4.39,4.39,0,0,0-2.167.537,1.693,1.693,0,0,0-.968,1.552v12.048h-1.721v-15.4h1.721l-0.092,1.075a5.428,5.428,0,0,1,3.811-1.321,11.206,11.206,0,0,1,2.244.246Z"/><path class="c" d="M197.78,172.407a13.76,13.76,0,0,1-4.979,1.014q-0.492,0-1.491-.092a5.641,5.641,0,0,1-2.121-.691,4.419,4.419,0,0,1-1.813-1.906,6.864,6.864,0,0,1-.692-3.242v-9.866a7.488,7.488,0,0,1,.661-3.534,5.514,5.514,0,0,1,2.013-2.028,6.671,6.671,0,0,1,3.289-.769,9.5,9.5,0,0,1,4.365,1.014l-0.492,1.168a9.6,9.6,0,0,0-3.319-.646q-4.8,0-4.795,4.518v10.081q0,4.027,3.9,4.395a3.253,3.253,0,0,0,.645.062,13.812,13.812,0,0,0,4.456-.922Z"/><path class="c" d="M205.925,173.422q-6.731,0-6.731-5.5v-2.551q0-3.043,2.121-4.088a5.085,5.085,0,0,1,2.182-.523,9.119,9.119,0,0,1,5.809,1.721,3.67,3.67,0,0,0-.984-2.69q-0.985-1-3.78-1l0.092-1.321a8.843,8.843,0,0,1,3.689.584,11.269,11.269,0,0,1,1.137.677,2.316,2.316,0,0,1,.769.891q0.276,0.553.461,0.968a3.612,3.612,0,0,1,.246,1.122q0.092,1.076.092,2.244v9.159Q207.83,173.421,205.925,173.422Zm3.381-1.721v-7.9a14.687,14.687,0,0,0-5.225-1.445,2.262,2.262,0,0,0-.369-0.031,2.941,2.941,0,0,0-2,.722,3.055,3.055,0,0,0-.83,2.413v2.674a3.163,3.163,0,0,0,2.213,3.319,8.637,8.637,0,0,0,2.919.461A25.542,25.542,0,0,0,209.306,171.7Z"/><path class="c" d="M221.231,159.283a9.281,9.281,0,0,0-2.367-.307,4.39,4.39,0,0,0-2.167.537,1.693,1.693,0,0,0-.968,1.552v12.048h-1.721v-15.4h1.721l-0.092,1.075a5.428,5.428,0,0,1,3.811-1.321,11.206,11.206,0,0,1,2.244.246Z"/><path class="c" d="M227.163,171.977a9.573,9.573,0,0,0,4.487-1.26l0.676,1.322a9.356,9.356,0,0,1-4.948,1.444q-5.348,0-5.348-4.487v-6.3a4.918,4.918,0,0,1,1.552-3.873,5.937,5.937,0,0,1,4.1-1.383,5.524,5.524,0,0,1,3.98,1.368,5.006,5.006,0,0,1,1.429,3.8v4l-9.344.523V169a2.6,2.6,0,0,0,1.2,2.4A4.049,4.049,0,0,0,227.163,171.977Zm4.211-6.915v-2.674a3.264,3.264,0,0,0-.707-2.167,3.173,3.173,0,0,0-1.475-1.075,5.306,5.306,0,0,0-1.536-.231,4.217,4.217,0,0,0-2.8.922,3.55,3.55,0,0,0-1.107,2.889v2.7Z"/></svg>